<mxfile host="app.diagrams.net" modified="2022-11-16T12:57:44.623Z" agent="5.0 (Windows NT 10.0; Win64; x64) AppleWebKit/537.36 (KHTML, like Gecko) Chrome/107.0.0.0 Safari/537.36" etag="SilDyFVg7fQSojxmKpg4" version="20.5.3" type="github">
  <diagram id="QDg-Uc9_VLPLqPZ0KN7H" name="페이지-1">
    <mxGraphModel dx="1038" dy="513" grid="1" gridSize="10" guides="1" tooltips="1" connect="1" arrows="1" fold="1" page="1" pageScale="1" pageWidth="3300" pageHeight="4681" math="0" shadow="0">
      <root>
        <mxCell id="0" />
        <mxCell id="1" parent="0" />
        <mxCell id="m533QYnePMexXK54dJPi-1" value="사용자" style="shape=umlLifeline;perimeter=lifelinePerimeter;whiteSpace=wrap;html=1;container=1;collapsible=0;recursiveResize=0;outlineConnect=0;" vertex="1" parent="1">
          <mxGeometry x="140" y="30" width="100" height="410" as="geometry" />
        </mxCell>
        <mxCell id="m533QYnePMexXK54dJPi-2" value="수동조절&lt;br&gt;&amp;nbsp;인터페이스&lt;span style=&quot;white-space: pre;&quot;&gt;	&lt;/span&gt;" style="shape=umlLifeline;perimeter=lifelinePerimeter;whiteSpace=wrap;html=1;container=1;collapsible=0;recursiveResize=0;outlineConnect=0;" vertex="1" parent="1">
          <mxGeometry x="290" y="30" width="100" height="410" as="geometry" />
        </mxCell>
        <mxCell id="m533QYnePMexXK54dJPi-3" value="User_signal" style="shape=umlLifeline;perimeter=lifelinePerimeter;whiteSpace=wrap;html=1;container=1;collapsible=0;recursiveResize=0;outlineConnect=0;" vertex="1" parent="1">
          <mxGeometry x="450" y="30" width="100" height="410" as="geometry" />
        </mxCell>
        <mxCell id="m533QYnePMexXK54dJPi-9" value="" style="html=1;points=[];perimeter=orthogonalPerimeter;" vertex="1" parent="m533QYnePMexXK54dJPi-3">
          <mxGeometry x="45" y="170" width="10" height="70" as="geometry" />
        </mxCell>
        <mxCell id="m533QYnePMexXK54dJPi-4" value="장치 제어" style="shape=umlLifeline;perimeter=lifelinePerimeter;whiteSpace=wrap;html=1;container=1;collapsible=0;recursiveResize=0;outlineConnect=0;" vertex="1" parent="1">
          <mxGeometry x="600" y="30" width="100" height="410" as="geometry" />
        </mxCell>
        <mxCell id="m533QYnePMexXK54dJPi-11" value="" style="html=1;points=[];perimeter=orthogonalPerimeter;" vertex="1" parent="m533QYnePMexXK54dJPi-4">
          <mxGeometry x="45" y="240" width="10" height="110" as="geometry" />
        </mxCell>
        <mxCell id="m533QYnePMexXK54dJPi-5" value="사용자" style="shape=umlLifeline;perimeter=lifelinePerimeter;whiteSpace=wrap;html=1;container=1;collapsible=0;recursiveResize=0;outlineConnect=0;" vertex="1" parent="1">
          <mxGeometry x="750" y="30" width="100" height="410" as="geometry" />
        </mxCell>
        <mxCell id="m533QYnePMexXK54dJPi-6" value="팬/ 물펌프/ 조명&lt;br&gt;On/Off 버튼 클릭" style="html=1;verticalAlign=bottom;endArrow=block;rounded=0;" edge="1" parent="1" source="m533QYnePMexXK54dJPi-1" target="m533QYnePMexXK54dJPi-2">
          <mxGeometry width="80" relative="1" as="geometry">
            <mxPoint x="490" y="260" as="sourcePoint" />
            <mxPoint x="570" y="260" as="targetPoint" />
            <Array as="points">
              <mxPoint x="260" y="140" />
            </Array>
          </mxGeometry>
        </mxCell>
        <mxCell id="m533QYnePMexXK54dJPi-7" value="확인메세지 출력" style="html=1;verticalAlign=bottom;endArrow=open;dashed=1;endSize=8;rounded=0;" edge="1" parent="1" source="m533QYnePMexXK54dJPi-2" target="m533QYnePMexXK54dJPi-1">
          <mxGeometry relative="1" as="geometry">
            <mxPoint x="570" y="260" as="sourcePoint" />
            <mxPoint x="490" y="260" as="targetPoint" />
            <Array as="points">
              <mxPoint x="270" y="170" />
            </Array>
          </mxGeometry>
        </mxCell>
        <mxCell id="m533QYnePMexXK54dJPi-8" value="팬/물펌프/조명&lt;br&gt;On/Off 데이터 저장" style="html=1;verticalAlign=bottom;endArrow=block;rounded=0;" edge="1" parent="1" source="m533QYnePMexXK54dJPi-2" target="m533QYnePMexXK54dJPi-3">
          <mxGeometry width="80" relative="1" as="geometry">
            <mxPoint x="199.5" y="150" as="sourcePoint" />
            <mxPoint x="349.5" y="150" as="targetPoint" />
            <Array as="points">
              <mxPoint x="420" y="200" />
            </Array>
          </mxGeometry>
        </mxCell>
        <mxCell id="m533QYnePMexXK54dJPi-10" value="팬/물펌프/조명&lt;br&gt;On/Off 신호 전송" style="html=1;verticalAlign=bottom;endArrow=block;rounded=0;" edge="1" parent="1" source="m533QYnePMexXK54dJPi-3" target="m533QYnePMexXK54dJPi-4">
          <mxGeometry width="80" relative="1" as="geometry">
            <mxPoint x="500" y="310" as="sourcePoint" />
            <mxPoint x="660" y="310" as="targetPoint" />
            <Array as="points">
              <mxPoint x="580" y="270" />
            </Array>
          </mxGeometry>
        </mxCell>
        <mxCell id="m533QYnePMexXK54dJPi-12" value="팬/물펌프/조명&lt;br&gt;On/Off" style="html=1;verticalAlign=bottom;endArrow=block;rounded=0;" edge="1" parent="1" source="m533QYnePMexXK54dJPi-4" target="m533QYnePMexXK54dJPi-5">
          <mxGeometry width="80" relative="1" as="geometry">
            <mxPoint x="650" y="410" as="sourcePoint" />
            <mxPoint x="800" y="410" as="targetPoint" />
            <Array as="points">
              <mxPoint x="731" y="380" />
            </Array>
          </mxGeometry>
        </mxCell>
      </root>
    </mxGraphModel>
  </diagram>
</mxfile>
